<svg width="28" height="28" viewBox="0 0 28 28" fill="none" xmlns="http://www.w3.org/2000/svg">
<path d="M25.5433 18.3006C23.8597 18.3006 22.2065 18.0373 20.64 17.5196C19.8723 17.2577 18.9287 17.4979 18.4602 17.9791L15.3681 20.3133C11.7821 18.3991 9.57326 16.191 7.68522 12.6319L9.95074 9.62041C10.5393 9.0326 10.7505 8.17394 10.4975 7.36828C9.9776 5.79347 9.71348 4.14111 9.71348 2.45673C9.71356 1.23993 8.72363 0.25 7.5069 0.25H2.45665C1.23993 0.25 0.25 1.23993 0.25 2.45666C0.25 16.4036 11.5964 27.75 25.5433 27.75C26.7601 27.75 27.75 26.7601 27.75 25.5433V20.5072C27.7499 19.2905 26.76 18.3006 25.5433 18.3006Z" fill="white"/>
</svg>
