<svg width="23" height="15" viewBox="0 0 23 15" fill="none" xmlns="http://www.w3.org/2000/svg">
<path d="M22.9443 8.19838C22.907 7.6612 22.8317 7.07524 22.7209 6.45646C22.609 5.83305 22.4649 5.24372 22.2925 4.70507C22.1143 4.14834 21.872 3.59855 21.5725 3.07168C21.2617 2.52483 20.8965 2.04865 20.4868 1.65681C20.0584 1.24689 19.5338 0.917308 18.9272 0.676905C18.3228 0.437764 17.6529 0.316617 16.9363 0.316617C16.6549 0.316617 16.3827 0.432086 15.8571 0.774286C15.5336 0.985243 15.1553 1.22922 14.7329 1.49907C14.3718 1.72917 13.8826 1.94475 13.2783 2.13993C12.6888 2.3307 12.0902 2.42745 11.4994 2.42745C10.9086 2.42745 10.3102 2.3307 9.72001 2.13993C9.11637 1.94496 8.62716 1.72938 8.26645 1.49928C7.84811 1.23196 7.46952 0.987977 7.1412 0.774076C6.61623 0.431875 6.34386 0.316406 6.06244 0.316406C5.34565 0.316406 4.67597 0.437764 4.0717 0.677115C3.46554 0.917098 2.94078 1.24668 2.51192 1.65702C2.10242 2.04907 1.73708 2.52504 1.42664 3.07168C1.12735 3.59855 0.885052 4.14813 0.706696 4.70528C0.534439 5.24393 0.390365 5.83305 0.278472 6.45646C0.16763 7.07439 0.0923332 7.66057 0.0551055 8.19901C0.0185087 8.72651 0 9.27398 0 9.82693C0 11.266 0.457459 12.431 1.35955 13.2902C2.25049 14.138 3.42937 14.5681 4.86295 14.5681H18.1371C19.5706 14.5681 20.7491 14.1382 21.6402 13.2902C22.5425 12.4316 23 11.2664 23 9.82672C22.9998 9.27125 22.9811 8.72335 22.9443 8.19838Z" fill="white"/>
</svg>
